<?xml version="1.0" encoding="iso-8859-1"?>
<!-- Generator: Adobe Illustrator 18.0.0, SVG Export Plug-In . SVG Version: 6.00 Build 0)  -->
<!DOCTYPE svg PUBLIC "-//W3C//DTD SVG 1.1//EN" "http://www.w3.org/Graphics/SVG/1.1/DTD/svg11.dtd">
<svg version="1.1" id="Capa_1" xmlns="http://www.w3.org/2000/svg" xmlns:xlink="http://www.w3.org/1999/xlink" x="0px" y="0px"
	 viewBox="0 0 86.253 82.282" style="enable-background:new 0 0 86.253 82.282;" xml:space="preserve">
<path d="M86.054,30.516c-0.234-1.078-1.265-1.735-2.39-1.735H55.023L45.649,1.735C45.241,0.558,44.43,0,43.164,0
	c-1.265,0-2.123,0.558-2.531,1.735l-9.375,27.046H2.618c-1.266,0-2.063,0.563-2.485,1.735c-0.328,1.265-0.05,2.207,0.844,2.906
	l22.969,17.953L15.602,78.89c-0.366,1.208,0,2.203,0.938,2.906c1.031,0.61,2.111,0.685,3.093,0L43.164,65.39l23.484,16.406
	c0.501,0.35,1.032,0.469,1.547,0.469c1.453,0,2.578-1.125,2.578-2.578c0-0.234-0.032-0.567-0.187-1.078l-8.25-27.234l22.968-17.953
	C86.228,32.7,86.476,31.734,86.054,30.516z M57.742,48.375c-0.79,0.617-1.177,1.814-0.89,2.765l6.656,22.078L44.57,60.093
	c-0.951-0.659-1.94-0.637-2.859,0L22.774,73.218L29.43,51.14c0.287-0.951-0.1-2.148-0.891-2.765L10.118,33.984H33.18
	c1.172,0,1.981-0.558,2.391-1.734l7.593-21.797l7.547,21.797c0.407,1.177,1.219,1.734,2.437,1.734h23.016L57.742,48.375z"/>
<g>
</g>
<g>
</g>
<g>
</g>
<g>
</g>
<g>
</g>
<g>
</g>
<g>
</g>
<g>
</g>
<g>
</g>
<g>
</g>
<g>
</g>
<g>
</g>
<g>
</g>
<g>
</g>
<g>
</g>
</svg>
